<?xml version="1.0" standalone="no"?>
<!DOCTYPE svg PUBLIC "-//W3C//DTD SVG 20010904//EN"
 "http://www.w3.org/TR/2001/REC-SVG-20010904/DTD/svg10.dtd">
<svg version="1.0" xmlns="http://www.w3.org/2000/svg"
 width="512.000000pt" height="512.000000pt" viewBox="0 0 512.000000 512.000000"
 preserveAspectRatio="xMidYMid meet">
<metadata>
Created by potrace 1.11, written by Peter Selinger 2001-2013
</metadata>
<g transform="translate(0.000000,512.000000) scale(0.100000,-0.100000)"
fill="#000000" stroke="none">
<path d="M1320 2556 l0 -1777 868 3 867 4 75 23 c351 108 590 366 655 704 29
155 9 343 -54 497 -69 168 -137 244 -570 636 -30 27 -66 60 -81 74 -15 14 -67
61 -115 105 -49 44 -100 91 -115 105 -15 14 -69 63 -120 110 -51 47 -108 99
-126 115 -18 17 -67 62 -110 100 -43 39 -92 83 -109 99 -16 15 -68 63 -114
105 -47 42 -110 99 -140 127 -217 197 -313 285 -356 325 -27 25 -72 66 -99 90
-27 24 -58 53 -70 64 -12 11 -49 44 -81 74 -33 30 -93 86 -132 124 l-73 70 0
-1777z"/>
<path d="M1361 4327 c2 -2 38 -34 79 -73 41 -38 124 -114 185 -169 60 -55 116
-107 125 -115 9 -8 61 -55 116 -105 54 -49 101 -92 104 -95 3 -4 59 -55 126
-116 66 -60 162 -147 213 -194 52 -47 103 -93 114 -103 12 -10 46 -41 77 -70
62 -58 233 -214 260 -237 10 -8 64 -58 120 -110 57 -52 114 -104 126 -115 12
-12 62 -57 111 -101 48 -44 106 -96 127 -116 l39 -35 27 26 c14 14 80 76 145
136 137 128 197 203 253 318 60 121 84 221 87 358 7 262 -81 480 -268 662
-124 121 -263 194 -462 244 -29 7 -1714 17 -1704 10z"/>
</g>
</svg>
